<?xml version="1.0" standalone="no"?>
<!DOCTYPE svg PUBLIC "-//W3C//DTD SVG 1.1//EN" "http://www.w3.org/Graphics/SVG/1.1/DTD/svg11.dtd" >
<svg xmlns="http://www.w3.org/2000/svg">
<metadata>
This is a custom SVG webfont generated by Font Squirrel.
Copyright   : Private data generated by Bitstream TrueDoc TM
</metadata>
<defs>
<font id="VolterGoldfishRegular" horiz-adv-x="1269" >
<font-face units-per-em="2048" ascent="1638" descent="-410" />
<missing-glyph horiz-adv-x="1058" />
<glyph unicode=" "  horiz-adv-x="1058" />
<glyph unicode="&#x09;" horiz-adv-x="1058" />
<glyph unicode="&#xa0;" horiz-adv-x="1058" />
<glyph unicode="!" horiz-adv-x="423" d="M0 423v1058h212v-1058h-212zM0 0v212h212v-212h-212z" />
<glyph unicode="&#x22;" horiz-adv-x="846" d="M423 1058v423h212v-423h-212zM0 1058v423h212v-423h-212z" />
<glyph unicode="#" horiz-adv-x="1481" d="M0 423v212h212v423h-212v211h212v212h211v-212h423v212h212v-212h211v-211h-211v-423h211v-212h-211v-211h-212v211h-423v-211h-211v211h-212zM423 635h423v423h-423v-423z" />
<glyph unicode="$" horiz-adv-x="1692" d="M1269 212v423h212v-423h-212zM0 0v212h423v423h-211v211h211v423h-211v212h211v212h212v-212h211v212h212v-212h423v-212h-423v-423h211v-211h-211v-423h211v-212h-211v-212h-212v212h-211v-212h-212v212h-423zM635 212h211v423h-211v-423zM635 846h211v423h-211v-423z M0 846v423h212v-423h-212z" />
<glyph unicode="%" horiz-adv-x="1692" d="M0 0v212h212v-212h-212zM0 1058v211h212v-211h-212zM212 212v211h211v-211h-211zM212 846v212h211v-212h-211zM212 1269v212h211v-212h-211zM423 423v212h212v-212h-212zM423 1058v211h212v-211h-212zM635 635v211h211v-211h-211zM846 212v211h212v-211h-212zM846 846 v212h212v-212h-212zM1058 0v212h211v-212h-211zM1058 423v212h211v-212h-211zM1058 1058v211h211v-211h-211zM1269 212v211h212v-211h-212zM1269 1269v212h212v-212h-212z" />
<glyph unicode="&#x26;" horiz-adv-x="1481" d="M0 212v423h212v-423h-212zM212 0v212h634v-212h-634zM212 635v634h211v-423h423v-423h-211v212h-423zM423 1269v212h423v-212h-423zM846 212v211h212v-211h-212zM846 846v423h212v-423h-212zM1058 0v212h211v-212h-211zM1058 423v212h211v-212h-211z" />
<glyph unicode="'" horiz-adv-x="423" d="M0 846v635h212v-635h-212z" />
<glyph unicode="(" horiz-adv-x="846" d="M212 1269v212h423v-212h-423zM212 0v212h423v-212h-423zM0 212v1058h212v-1058h-212z" />
<glyph unicode=")" horiz-adv-x="846" d="M423 212v1058h212v-1058h-212zM0 1269v212h423v-212h-423zM0 0v212h423v-212h-423z" />
<glyph unicode="*" d="M846 1269v212h212v-212h-212zM212 1058v211h211v424h212v-424h211v-211h-211v-423h-212v423h-211zM846 846v212h212v-212h-212zM0 1269v212h212v-212h-212zM0 846v212h212v-212h-212z" />
<glyph unicode="+" d="M0 423v212h423v423h212v-423h423v-212h-423v-423h-212v423h-423z" />
<glyph unicode="," horiz-adv-x="635" d="M0 0v423h423v-635h-211v212h-212zM0 -423v211h212v-211h-212z" />
<glyph unicode="-" horiz-adv-x="1058" d="M0 423v212h846v-212h-846z" />
<glyph unicode="." horiz-adv-x="635" d="M0 0v423h423v-423h-423z" />
<glyph unicode="/" horiz-adv-x="1692" d="M0 0v212h212v-212h-212zM212 212v211h211v-211h-211zM423 423v212h212v-212h-212zM635 635v211h211v-211h-211zM846 846v212h212v-212h-212zM1058 1058v211h211v-211h-211zM1269 1269v212h212v-212h-212z" />
<glyph unicode="0" d="M635 846v212h211v211h212v-1057h-212v634h-211zM212 0v212h634v-212h-634zM0 212v1057h212v-634h211v-212h-211v-211h-212zM423 635v211h212v-211h-212zM212 1269v212h634v-212h-634z" />
<glyph unicode="1" horiz-adv-x="635" d="M0 1269v212h423v-1481h-211v1269h-212z" />
<glyph unicode="2" d="M0 0v635h212v-423h846v-212h-1058zM0 1269v212h846v-212h-846zM212 635v211h634v-211h-634zM846 846v423h212v-423h-212z" />
<glyph unicode="3" d="M0 0v212h846v-212h-846zM0 1269v212h846v-212h-846zM212 635v211h634v-211h-634zM846 212v423h212v-423h-212zM846 846v423h212v-423h-212z" />
<glyph unicode="4" d="M212 846v212h211v-212h-211zM0 423v212h635v423h-212v211h212v212h211v-846h212v-212h-212v-423h-211v423h-635zM0 635h212v211h-212v-211z" />
<glyph unicode="5" d="M0 0v212h846v-212h-846zM0 635v846h1058v-212h-846v-423h634v-211h-846zM846 212v423h212v-423h-212z" />
<glyph unicode="6" d="M846 212v423h212v-423h-212zM212 1269v212h634v-212h-634zM212 0v212h634v-212h-634zM0 212v1057h212v-423h634v-211h-634v-423h-212z" />
<glyph unicode="7" d="M635 635v423h211v-423h-211zM0 1269v212h1058v-423h-212v211h-846zM423 212v423h212v-423h-212zM212 0v212h211v-212h-211z" />
<glyph unicode="8" d="M0 212v423h212v-423h-212zM0 846v423h212v-423h-212zM212 0v212h634v-212h-634zM212 635v211h634v-211h-634zM212 1269v212h634v-212h-634zM846 212v423h212v-423h-212zM846 846v423h212v-423h-212z" />
<glyph unicode="9" d="M212 635v211h634v423h212v-1057h-212v423h-634zM212 1269v212h634v-212h-634zM0 846v423h212v-423h-212zM212 0v212h634v-212h-634z" />
<glyph unicode=":" horiz-adv-x="635" d="M0 635v423h423v-423h-423zM0 0v423h423v-423h-423z" />
<glyph unicode=";" horiz-adv-x="635" d="M0 635v423h423v-423h-423zM0 0v423h423v-635h-211v212h-212zM0 -423v211h212v-211h-212z" />
<glyph unicode="&#x3c;" horiz-adv-x="1058" d="M0 635v211h212v-211h-212zM212 423v212h211v-212h-211zM212 846v212h211v-212h-211zM423 212v211h212v-211h-212zM423 1058v211h212v-211h-212zM635 0v212h211v-212h-211zM635 1269v212h211v-212h-211z" />
<glyph unicode="=" d="M0 635v211h1058v-211h-1058zM0 212v211h1058v-211h-1058z" />
<glyph unicode="&#x3e;" horiz-adv-x="1058" d="M0 0v212h212v-212h-212zM0 1269v212h212v-212h-212zM212 212v211h211v-211h-211zM212 1058v211h211v-211h-211zM423 423v212h212v-212h-212zM423 846v212h212v-212h-212zM635 635v211h211v-211h-211z" />
<glyph unicode="?" d="M0 1058v211h212v-211h-212zM212 1269v212h634v-212h-634zM423 0v212h212v-212h-212zM423 423v212h212v-212h-212zM635 635v211h211v-211h-211zM846 846v423h212v-423h-212z" />
<glyph unicode="@" horiz-adv-x="1692" d="M423 423v635h635v-423h211v634h212v-846h-1058zM635 635h211v211h-211v-211zM212 1269v212h1057v-212h-1057zM212 0v212h1057v-212h-1057zM0 212v1058h212v-1058h-212z" />
<glyph unicode="A" d="M212 1269v212h634v-212h-634zM0 0v1269h212v-423h634v423h212v-1269h-212v635h-634v-635h-212z" />
<glyph unicode="B" d="M846 846v423h212v-423h-212zM0 0v1481h846v-212h-634v-423h634v-211h-634v-423h634v-212h-846zM846 212v423h212v-423h-212z" />
<glyph unicode="C" d="M846 1058v211h212v-211h-212zM846 212v211h212v-211h-212zM212 1269v212h634v-212h-634zM212 0v212h634v-212h-634zM0 212v1058h212v-1058h-212z" />
<glyph unicode="D" d="M846 212v1058h212v-1058h-212zM0 0v1481h846v-212h-634v-1057h634v-212h-846z" />
<glyph unicode="E" d="M0 0v1481h1058v-212h-846v-423h634v-211h-634v-423h846v-212h-1058z" />
<glyph unicode="F" d="M0 0v1481h1058v-212h-846v-423h634v-211h-634v-635h-212z" />
<glyph unicode="G" d="M846 1058v211h212v-211h-212zM423 635v211h635v-634h-212v423h-423zM212 0v212h634v-212h-634zM0 212v1058h212v-1058h-212zM212 1269v212h634v-212h-634z" />
<glyph unicode="H" d="M0 0v1481h212v-635h634v635h212v-1481h-212v635h-634v-635h-212z" />
<glyph unicode="I" horiz-adv-x="846" d="M0 0v212h212v1057h-212v212h635v-212h-212v-1057h212v-212h-635z" />
<glyph unicode="J" d="M846 212v1269h212v-1269h-212zM212 0v212h634v-212h-634zM0 212v211h212v-211h-212z" />
<glyph unicode="K" d="M0 0v1481h212v-635h211v-211h-211v-635h-212zM423 423v212h212v-212h-212zM423 846v212h212v-212h-212zM635 212v211h211v-211h-211zM635 1058v211h211v-211h-211zM846 0v212h212v-212h-212zM846 1269v212h212v-212h-212z" />
<glyph unicode="L" d="M0 0v1481h212v-1269h846v-212h-1058z" />
<glyph unicode="M" horiz-adv-x="1481" d="M846 1058v211h212v212h211v-1481h-211v1058h-212zM423 846v212h423v-212h-423zM0 0v1481h212v-212h211v-211h-211v-1058h-212z" />
<glyph unicode="N" d="M635 423v212h211v846h212v-1481h-212v423h-211zM423 635v211h212v-211h-212zM0 0v1481h212v-423h211v-212h-211v-846h-212z" />
<glyph unicode="O" d="M846 212v1058h212v-1058h-212zM0 212v1058h212v-1058h-212zM212 1269v212h634v-212h-634zM212 0v212h634v-212h-634z" />
<glyph unicode="P" d="M846 635v635h212v-635h-212zM0 0v1481h846v-212h-634v-634h634v-212h-634v-423h-212z" />
<glyph unicode="Q" horiz-adv-x="1481" d="M1058 -212v212h211v-212h-211zM212 0v212h423v211h211v846h212v-1269h-846zM212 1269v212h634v-212h-634zM0 212v1058h212v-1058h-212z" />
<glyph unicode="R" d="M846 635v635h212v-635h-212zM846 0v212h212v-212h-212zM0 0v1481h846v-212h-634v-634h634v-423h-211v211h-423v-423h-212z" />
<glyph unicode="S" d="M0 212v211h212v-211h-212zM0 846v423h212v-423h-212zM212 0v212h634v-212h-634zM212 635v211h634v-211h-634zM212 1269v212h634v-212h-634zM846 212v423h212v-423h-212zM846 1058v211h212v-211h-212z" />
<glyph unicode="T" d="M0 1269v212h1058v-212h-423v-1269h-212v1269h-423z" />
<glyph unicode="U" d="M846 212v1269h212v-1269h-212zM212 0v212h634v-212h-634zM0 212v1269h212v-1269h-212z" />
<glyph unicode="V" d="M846 635v846h212v-846h-212zM635 212v423h211v-423h-211zM423 0v212h212v-212h-212zM212 212v423h211v-423h-211zM0 635v846h212v-846h-212z" />
<glyph unicode="W" horiz-adv-x="1692" d="M0 635v846h212v-846h-212zM212 212v423h211v-423h-211zM423 0v212h212v-212h-212zM635 212v846h211v-846h-211zM846 0v212h212v-212h-212zM1058 212v423h211v-423h-211zM1269 635v846h212v-846h-212z" />
<glyph unicode="X" d="M0 0v423h212v-423h-212zM0 1058v423h212v-423h-212zM212 423v212h211v-212h-211zM212 846v212h211v-212h-211zM423 635v211h212v-211h-212zM635 423v212h211v-212h-211zM635 846v212h211v-212h-211zM846 0v423h212v-423h-212zM846 1058v423h212v-423h-212z" />
<glyph unicode="Y" d="M846 846v635h212v-635h-212zM635 635v211h211v-211h-211zM423 0v635h212v-635h-212zM212 635v211h211v-211h-211zM0 846v635h212v-635h-212z" />
<glyph unicode="Z" d="M635 846v212h211v-212h-211zM212 423v212h211v-212h-211zM423 635v211h212v-211h-212zM0 1269v212h1058v-423h-212v211h-846zM0 0v423h212v-211h846v-212h-1058z" />
<glyph unicode="[" horiz-adv-x="846" d="M0 0v1481h635v-212h-423v-1057h423v-212h-635z" />
<glyph unicode="\" horiz-adv-x="1692" d="M0 1269v212h212v-212h-212zM212 1058v211h211v-211h-211zM423 846v212h212v-212h-212zM635 635v211h211v-211h-211zM846 423v212h212v-212h-212zM1058 212v211h211v-211h-211zM1269 0v212h212v-212h-212z" />
<glyph unicode="]" horiz-adv-x="846" d="M0 0v212h423v1057h-423v212h635v-1481h-635z" />
<glyph unicode="^" horiz-adv-x="846" d="M423 1058v211h212v-211h-212zM212 1269v212h211v-212h-211zM0 1058v211h212v-211h-212z" />
<glyph unicode="_" horiz-adv-x="1481" d="M0 0v212h1269v-212h-1269z" />
<glyph unicode="`" horiz-adv-x="635" d="M212 1058v211h211v-211h-211zM0 1269v212h212v-212h-212z" />
<glyph unicode="a" d="M212 0v212h634v211h-634v212h634v211h212v-846h-846zM212 846v212h634v-212h-634zM0 212v211h212v-211h-212z" />
<glyph unicode="b" d="M846 212v635h212v-635h-212zM0 0v1481h212v-423h634v-212h-634v-634h634v-212h-846z" />
<glyph unicode="c" d="M846 635v211h212v-211h-212zM846 212v211h212v-211h-212zM212 846v212h634v-212h-634zM212 0v212h634v-212h-634zM0 212v635h212v-635h-212z" />
<glyph unicode="d" d="M212 0v212h634v634h-634v212h634v423h212v-1481h-846zM0 212v635h212v-635h-212z" />
<glyph unicode="e" d="M0 212v634h212v-211h634v211h212v-423h-846v-211h-212zM212 0v212h846v-212h-846zM212 846v212h634v-212h-634z" />
<glyph unicode="f" horiz-adv-x="1058" d="M423 1269v212h423v-212h-423zM0 846v212h212v211h211v-211h212v-212h-212v-846h-211v846h-212z" />
<glyph unicode="g" d="M212 0v212h634v634h-634v212h846v-1270h-212v212h-634zM212 -423v211h634v-211h-634zM0 212v635h212v-635h-212z" />
<glyph unicode="h" d="M846 0v846h212v-846h-212zM0 0v1481h212v-423h634v-212h-634v-846h-212z" />
<glyph unicode="i" horiz-adv-x="423" d="M0 1269v212h212v-212h-212zM0 0v1058h212v-1058h-212z" />
<glyph unicode="j" horiz-adv-x="635" d="M212 1269v212h211v-212h-211zM212 -212v1270h211v-1270h-211zM0 -423v211h212v-211h-212z" />
<glyph unicode="k" horiz-adv-x="1058" d="M635 846v212h211v-212h-211zM635 0v212h211v-212h-211zM423 212v211h212v-211h-212zM423 635v211h212v-211h-212zM0 0v1481h212v-846h211v-212h-211v-423h-212z" />
<glyph unicode="l" horiz-adv-x="423" d="M0 0v1481h212v-1481h-212z" />
<glyph unicode="m" horiz-adv-x="1692" d="M1269 0v846h212v-846h-212zM0 0v1058h1269v-212h-423v-846h-211v846h-423v-846h-212z" />
<glyph unicode="n" d="M846 0v846h212v-846h-212zM0 0v1058h846v-212h-634v-846h-212z" />
<glyph unicode="o" d="M846 212v635h212v-635h-212zM212 846v212h634v-212h-634zM212 0v212h634v-212h-634zM0 212v635h212v-635h-212z" />
<glyph unicode="p" d="M846 212v635h212v-635h-212zM0 -423v1481h846v-212h-634v-634h634v-212h-634v-423h-212z" />
<glyph unicode="q" d="M212 0v212h634v634h-634v212h846v-1481h-212v423h-634zM0 212v635h212v-635h-212z" />
<glyph unicode="r" horiz-adv-x="1058" d="M423 846v212h423v-212h-423zM0 0v1058h212v-212h211v-211h-211v-635h-212z" />
<glyph unicode="s" d="M0 0v212h846v-212h-846zM0 635v211h212v-211h-212zM212 423v212h634v-212h-634zM212 846v212h846v-212h-846zM846 212v211h212v-211h-212z" />
<glyph unicode="t" horiz-adv-x="1058" d="M423 0v212h423v-212h-423zM0 846v212h212v423h211v-423h423v-212h-423v-634h-211v634h-212z" />
<glyph unicode="u" d="M846 212v846h212v-846h-212zM212 0v212h634v-212h-634zM0 212v846h212v-846h-212z" />
<glyph unicode="v" d="M846 635v423h212v-423h-212zM635 212v423h211v-423h-211zM423 0v212h212v-212h-212zM212 212v423h211v-423h-211zM0 635v423h212v-423h-212z" />
<glyph unicode="w" horiz-adv-x="1692" d="M1269 212v846h212v-846h-212zM846 0v212h423v-212h-423zM635 213v846h211v-846h-211zM212 0v212h423v-212h-423zM0 212v846h212v-846h-212z" />
<glyph unicode="x" d="M0 0v212h212v-212h-212zM0 846v212h212v-212h-212zM212 212v211h211v-211h-211zM212 635v211h211v-211h-211zM423 423v212h212v-212h-212zM635 212v211h211v-211h-211zM635 635v211h211v-211h-211zM846 0v212h212v-212h-212zM846 846v212h212v-212h-212z" />
<glyph unicode="y" d="M212 0v212h634v846h212v-1270h-212v212h-634zM212 -423v211h634v-211h-634zM0 212v846h212v-846h-212z" />
<glyph unicode="z" d="M423 423v212h212v-212h-212zM0 846v212h1058v-212h-212v-211h-211v211h-635zM0 0v212h212v211h211v-211h635v-212h-1058z" />
<glyph unicode="{" horiz-adv-x="1058" d="M423 1269v212h423v-212h-423zM423 0v212h423v-212h-423zM212 846v423h211v-423h-211zM212 212v423h211v-423h-211zM0 635v211h212v-211h-212z" />
<glyph unicode="|" horiz-adv-x="1692" d="M0 635v634h212v212h423v-212h211v212h423v-212h212v-634h-212v-212h-211v-211h-212v-212h-211v212h-212v211h-211v212h-212zM212 635h211v-212h212v-211h211v211h212v212h211v634h-423v-211h-211v211h-423v-634z" />
<glyph unicode="}" horiz-adv-x="1058" d="M635 635v211h211v-211h-211zM0 0v212h423v-212h-423zM423 212v423h212v-423h-212zM423 846v423h212v-423h-212zM0 1269v212h423v-212h-423z" />
<glyph unicode="~" d="M846 1269v212h212v-212h-212zM212 1269v212h423v-212h211v-211h-423v211h-211zM0 1058v211h212v-211h-212z" />
<glyph unicode="&#xa1;" horiz-adv-x="423" d="M0 846v212h212v-212h-212zM0 -423v1058h212v-1058h-212z" />
<glyph unicode="&#xa2;" d="M846 635v211h212v-211h-212zM212 0v212h211v634h-211v212h211v211h212v-211h211v-212h-211v-634h211v-212h-211v-212h-212v212h-211zM846 212v211h212v-211h-212zM0 212v635h212v-635h-212z" />
<glyph unicode="&#xa3;" d="M423 1269v212h635v-212h-635zM212 635v634h211v-423h423v-211h-634zM0 0v635h212v-423h846v-212h-1058z" />
<glyph unicode="&#xa4;" horiz-adv-x="1481" d="M0 423v212h212v211h-212v212h212v211h211v-211h635v-212h-635v-211h635v-212h-635v-211h-211v211h-212zM423 0v212h846v-212h-846zM423 1269v212h846v-212h-846z" />
<glyph unicode="&#x20ac;" horiz-adv-x="1481" d="M0 423v212h212v211h-212v212h212v211h211v-211h635v-212h-635v-211h635v-212h-635v-211h-211v211h-212zM423 0v212h846v-212h-846zM423 1269v212h846v-212h-846z" />
<glyph unicode="&#xa5;" horiz-adv-x="2539" d="M0 846v212h846v423h212v212h211v-212h212v-423h847v-212h-423v-211h-212v-212h212v-423h212v-212h-424v212h-212v212h-635v-212h-211v-212h-423v212h211v423h212v212h-212v211h-423z" />
<glyph unicode="&#xa7;" d="M0 0h212v-212h-212v212zM0 423v423h212v-423h-212zM0 1058v423h212v-423h-212zM212 -212h634v-211h-634v211zM212 212v211h634v-211h-634zM212 846v212h634v-212h-634zM212 1481v212h634v-212h-634zM846 -212v424h212v-424h-212zM846 423v423h212v-423h-212zM846 1269 v212h212v-212h-212z" />
<glyph unicode="&#xa8;" horiz-adv-x="846" d="M423 1481v211h212v-211h-212zM0 1481v211h212v-211h-212z" />
<glyph unicode="&#xa9;" horiz-adv-x="1692" d="M0 423v635h212v-635h-212zM212 212v211h211v-211h-211zM212 1058v211h211v-211h-211zM423 0v212h635v-212h-635zM423 423v635h635v-212h-423v-211h423v-212h-635zM423 1269v212h635v-212h-635zM1058 212v211h211v-211h-211zM1058 1058v211h211v-211h-211zM1269 423v635 h212v-635h-212z" />
<glyph unicode="&#xaa;" horiz-adv-x="2116" d="M1058 635v423h423v-423h-423zM423 635v423h423v-423h-423zM0 423v846h212v212h211v212h1058v-212h212v-212h212v-846h-212v-423h-212v-212h-1058v212h-211v423h-212zM212 423h211v-423h212v423h211v-423h212v423h211v-423h212v423h212v846h-212v212h-1058v-212h-211v-846 z" />
<glyph unicode="&#xab;" horiz-adv-x="1481" d="M0 635v211h212v-211h-212zM212 423v212h211v-212h-211zM212 846v212h211v-212h-211zM423 212v211h212v-211h-212zM423 1058v211h212v-211h-212zM635 635v211h211v-211h-211zM846 423v212h212v-212h-212zM846 846v212h212v-212h-212zM1058 212v211h211v-211h-211z M1058 1058v211h211v-211h-211z" />
<glyph unicode="&#xac;" horiz-adv-x="4867" d="M212 212v211h211v-211h-211zM212 1058v423h211v-423h-211zM423 0v212h212v-212h-212zM423 423v212h212v-212h-212zM423 846v212h423v-212h-423zM423 1481v212h423v-212h-423zM635 212v211h211v-211h-211zM846 1058v423h212v-423h-212zM1058 0h211v-212h-211v212z M1269 212v634h212v212h212v211h212v212h423v212h423v-212h423v-212h212v-211h211v-212h424v212h211v211h212v-211h-212v-212h-211v-211h211v211h212v-211h-212v-212h212v-211h-212v211h-211v-211h211v-212h212v-212h-212v212h-211v212h-424v-212h-211v-212h-423v-211h-1058 v211h-212v212h-212v212h-212zM1481 212h847v211h212v-211h-212v-212h-423v-212h1058v212h423v212h211v211h424v212h-424v211h-211v212h-212v211h-423v212h-423v-212h-423v-211h-212v-212h-212v-634zM1905 423v423h212v-423h-212z" />
<glyph unicode="&#xad;" horiz-adv-x="1058" d="M0 423v212h846v-212h-846z" />
<glyph unicode="&#xae;" horiz-adv-x="1692" d="M0 423v635h212v-635h-212zM212 212v211h211v-211h-211zM212 1058v211h211v-211h-211zM423 0v212h635v-212h-635zM423 423v635h635v-212h-212v-211h-211v-212h-212zM423 1269v212h635v-212h-635zM846 423v212h212v-212h-212zM1058 212v211h211v-211h-211zM1058 1058v211 h211v-211h-211zM1269 423v635h212v-635h-212z" />
<glyph unicode="&#xaf;" horiz-adv-x="846" d="M0 1481v211h635v-211h-635z" />
<glyph unicode="&#xb0;" horiz-adv-x="1058" d="M635 1058v423h211v-423h-211zM212 1481v211h423v-211h-423zM212 846v212h423v-212h-423zM0 1058v423h212v-423h-212z" />
<glyph unicode="&#xb1;" horiz-adv-x="1058" d="M0 0v1481h635v212h211v-1693h-846zM212 846h423v212h-423v-212z" />
<glyph unicode="&#xb2;" d="M0 0v635h212v-423h846v-212h-1058zM0 1269v212h846v-212h-846zM212 635v211h634v-211h-634zM846 846v423h212v-423h-212z" />
<glyph unicode="&#xb3;" d="M0 0v212h846v-212h-846zM0 1269v212h846v-212h-846zM212 635v211h634v-211h-634zM846 212v423h212v-423h-212zM846 846v423h212v-423h-212z" />
<glyph unicode="&#xb4;" horiz-adv-x="635" d="M212 1481v211h211v-211h-211zM0 1269v212h212v-212h-212z" />
<glyph unicode="&#xb5;" horiz-adv-x="2327" d="M0 0h212v-212h1481v212h212v-212h-212v-211h-1481v211h-212v212zM212 212v846h1481v-212h424v-423h-212v-211h-424v-212h-1058v212h-211zM423 212h1058v634h-1058v-634zM635 1269v212h211v-212h-211zM846 1481v212h212v-212h-212zM1058 1269v212h211v-212h-211z M1269 1481v212h212v-212h-212zM1693 423h212v212h-212v-212z" />
<glyph unicode="&#xb6;" horiz-adv-x="2327" d="M0 423v212h212v-212h-212zM0 846v212h212v-212h-212zM212 1269v212h211v-212h-211zM423 423v635h212v211h846v-211h212v-635h-212v-423h-212v212h-423v-212h-211v423h-212zM635 423h846v635h-846v-635zM635 1481v212h211v-212h-211zM846 0h423v-212h-423v212zM1269 1481 v212h212v-212h-212zM1693 1269v212h212v-212h-212zM1905 423v212h212v-212h-212zM1905 846v212h212v-212h-212z" />
<glyph unicode="&#xb7;" horiz-adv-x="1058" />
<glyph unicode="&#xb8;" horiz-adv-x="423" d="M0 -423v423h212v-423h-212z" />
<glyph unicode="&#xb9;" horiz-adv-x="635" d="M0 1269v212h423v-1481h-211v1269h-212z" />
<glyph unicode="&#xba;" horiz-adv-x="1481" d="M0 0h212v423h211v212h-423v423h212v635h1057v-212h-211v-212h-212v-211h-211v-212h423v-211h-212v-212h-211v-211h-212v-212h-211v-212h-212v212z" />
<glyph unicode="&#xbb;" horiz-adv-x="1692" d="M0 423v423h423v-211h212v211h-212v423h212v212h211v-212h212v-423h-212v-211h212v211h423v-423h-635v-211h423v-212h-1057v212h423v211h-635z" />
<glyph unicode="&#xbf;" d="M0 -212v424h212v-424h-212zM212 -212h634v-211h-634v211zM212 212v211h211v-211h-211zM423 423v212h212v-212h-212zM423 846v212h212v-212h-212zM846 0h212v-212h-212v212z" />
<glyph unicode="&#xc0;" d="M212 1058v211h211v212h212v-212h211v-211h-634zM212 1481v211h211v-211h-211zM0 0v1058h212v-423h634v423h212v-1058h-212v423h-634v-423h-212z" />
<glyph unicode="&#xc1;" d="M635 1481v211h211v-211h-211zM212 1058v211h211v212h212v-212h211v-211h-634zM0 0v1058h212v-423h634v423h212v-1058h-212v423h-634v-423h-212z" />
<glyph unicode="&#xc2;" d="M423 1481v211h212v-211h-212zM212 1058v423h211v-212h212v212h211v-423h-634zM0 0v1058h212v-423h634v423h212v-1058h-212v423h-634v-423h-212z" />
<glyph unicode="&#xc3;" d="M846 1481v211h212v-211h-212zM212 1058v211h211v212h-211v212h423v-212h211v-423h-634zM0 0v1058h212v-423h634v423h212v-1058h-212v423h-634v-423h-212zM0 1269v212h212v-212h-212z" />
<glyph unicode="&#xc4;" d="M635 1481v211h211v-211h-211zM212 1058v211h634v-211h-634zM212 1481v211h211v-211h-211zM0 0v1058h212v-212h634v212h212v-1058h-212v635h-634v-635h-212z" />
<glyph unicode="&#xc5;" d="M423 1481v211h212v-211h-212zM212 1058v423h211v-212h212v212h211v-423h-634zM0 0v1058h212v-212h634v212h212v-1058h-212v635h-634v-635h-212z" />
<glyph unicode="&#xc6;" horiz-adv-x="2116" d="M0 0v1269h212v-423h634v423h-634v212h1693v-212h-847v-423h847v-211h-847v-423h847v-212h-1059v635h-634v-635h-212z" />
<glyph unicode="&#xc7;" d="M0 212v1057h212v-1057h-212zM212 0v212h634v-212h-211v-212h-212v212h-211zM212 -212h211v-211h-211v211zM212 1269v212h634v-212h-634zM846 212v211h212v-211h-212zM846 1058v211h212v-211h-212z" />
<glyph unicode="&#xc8;" d="M212 1481v211h211v-211h-211zM0 0v1269h423v212h212v-212h423v-211h-846v-212h634v-211h-634v-423h846v-212h-1058z" />
<glyph unicode="&#xc9;" d="M635 1481v211h211v-211h-211zM423 1269v212h212v-212h-212zM0 0v1058h1058v-212h-846v-211h634v-212h-634v-211h846v-212h-1058z" />
<glyph unicode="&#xca;" d="M423 1481v211h212v-211h-212zM0 0v1269h212v212h211v-212h212v212h211v-212h212v-211h-846v-212h634v-211h-634v-423h846v-212h-1058z" />
<glyph unicode="&#xcb;" d="M635 1481v211h211v-211h-211zM0 0v1269h1058v-211h-846v-212h634v-211h-634v-423h846v-212h-1058zM212 1481v211h211v-211h-211z" />
<glyph unicode="&#xcc;" horiz-adv-x="1481" d="M0 0v846h212v423h211v212h423v-212h212v-423h211v-846h-1269zM212 212h846v423h-846v-423zM423 846h423v423h-423v-423z" />
<glyph unicode="&#xcd;" horiz-adv-x="1481" d="M0 212v211h212v212h423v846h211v-212h212v-211h211v-212h-211v212h-212v-846h-211v-212h-423v212h-212z" />
<glyph unicode="&#xce;" horiz-adv-x="846" d="M212 1481v211h211v-211h-211zM0 0v212h212v846h-212v423h212v-212h211v212h212v-423h-212v-846h212v-212h-635z" />
<glyph unicode="&#xcf;" horiz-adv-x="846" d="M423 1481v211h212v-211h-212zM0 0v212h212v846h-212v211h635v-211h-212v-846h212v-212h-635zM0 1481v211h212v-211h-212z" />
<glyph unicode="&#xd1;" d="M0 0v1058h212v-212h211v-211h-211v-635h-212zM0 1269v212h212v-212h-212zM212 1481v212h423v-212h211v-212h-423v212h-211zM423 423v212h212v-212h-212zM635 212v211h211v635h212v-1058h-212v212h-211zM846 1481v212h212v-212h-212z" />
<glyph unicode="&#xd2;" d="M846 212v846h212v-846h-212zM212 1481v211h211v-211h-211zM212 1058v211h211v212h212v-212h211v-211h-634zM212 0v212h634v-212h-634zM0 212v846h212v-846h-212z" />
<glyph unicode="&#xd3;" d="M846 212v846h212v-846h-212zM635 1481v211h211v-211h-211zM212 1058v211h211v212h212v-212h211v-211h-634zM212 0v212h634v-212h-634zM0 212v846h212v-846h-212z" />
<glyph unicode="&#xd4;" d="M846 212v846h212v-846h-212zM212 1058v423h211v-212h212v212h211v-423h-634zM423 1481v211h212v-211h-212zM212 0v212h634v-212h-634zM0 212v846h212v-846h-212z" />
<glyph unicode="&#xd5;" horiz-adv-x="1692" d="M0 635v211h212v212h211v211h212v212h211v-212h212v-211h211v-212h212v-211h-212v-212h-211v-211h-212v-212h-211v212h-212v211h-211v212h-212z" />
<glyph unicode="&#xd6;" d="M0 212v846h212v-846h-212zM212 0v212h634v-212h-634zM212 1058v211h634v-211h-634zM212 1481v212h211v-212h-211zM635 1481v212h211v-212h-211zM846 212v846h212v-846h-212z" />
<glyph unicode="&#xd8;" horiz-adv-x="1481" d="M1058 1481v211h211v-211h-211zM423 635v211h212v-211h-212zM212 1269v212h846v-1269h-212v634h-211v423h-423zM0 0v1269h212v-634h211v-423h423v-212h-846zM-212 -212v212h212v-212h-212z" />
<glyph unicode="&#xd9;" d="M846 212v1058h212v-1058h-212zM423 1269v212h212v-212h-212zM212 0v212h634v-212h-634zM0 212v1058h212v-1058h-212zM212 1481v211h211v-211h-211z" />
<glyph unicode="&#xda;" d="M846 212v1058h212v-1058h-212zM635 1481v211h211v-211h-211zM423 1269v212h212v-212h-212zM212 0v212h634v-212h-634zM0 212v1058h212v-1058h-212z" />
<glyph unicode="&#xdb;" d="M0 212v1057h212v-1057h-212zM212 0v212h634v-212h-634zM212 1269v212h211v-212h-211zM423 1481v212h212v-212h-212zM635 1269v212h211v-212h-211zM846 212v1057h212v-1057h-212z" />
<glyph unicode="&#xdc;" d="M846 212v1058h212v-1058h-212zM635 1481v211h211v-211h-211zM212 1481v211h211v-211h-211zM212 0v212h634v-212h-634zM0 212v1058h212v-1058h-212z" />
<glyph unicode="&#xdd;" d="M635 1807v211h211v-211h-211zM423 1595v212h212v-212h-212zM846 846v635h212v-635h-212zM635 635v211h211v-211h-211zM423 0v635h212v-635h-212zM212 635v211h211v-211h-211zM0 846v635h212v-635h-212z" />
<glyph unicode="&#xdf;" d="M846 846v423h212v-423h-212zM846 212v423h212v-423h-212zM423 0v212h423v-212h-423zM212 1269v212h634v-212h-634zM0 -423v1692h212v-423h634v-211h-634v-1058h-212z" />
<glyph unicode="&#xe0;" d="M423 1269v212h212v-212h-212zM212 0v212h634v211h-634v212h634v211h212v-846h-846zM212 1481v211h211v-211h-211zM212 846v212h634v-212h-634zM0 212v211h212v-211h-212z" />
<glyph unicode="&#xe1;" d="M635 1481v211h211v-211h-211zM423 1269v212h212v-212h-212zM212 0v212h634v211h-634v212h634v211h212v-846h-846zM212 846v212h634v-212h-634zM0 212v211h212v-211h-212z" />
<glyph unicode="&#xe2;" d="M0 212v211h212v-211h-212zM212 0v212h634v211h-634v212h634v211h212v-846h-846zM212 846v212h634v-212h-634zM212 1269v212h211v-212h-211zM423 1481v212h212v-212h-212zM635 1269v212h211v-212h-211z" />
<glyph unicode="&#xe3;" d="M0 212v211h212v-211h-212zM0 1269v212h212v-212h-212zM212 0v212h634v211h-634v212h634v211h212v-846h-846zM212 846v212h634v-212h-634zM212 1481v212h423v-212h211v-212h-423v212h-211zM846 1481v212h212v-212h-212z" />
<glyph unicode="&#xe4;" d="M635 1269v212h211v-212h-211zM212 0v212h634v211h-634v212h634v211h212v-846h-846zM212 846v212h634v-212h-634zM212 1269v212h211v-212h-211zM0 212v211h212v-211h-212z" />
<glyph unicode="&#xe5;" d="M0 212v211h212v-211h-212zM212 0v212h634v211h-634v212h634v211h212v-846h-846zM212 846v212h211v211h212v-211h211v-212h-634zM212 1269v212h211v-212h-211zM423 1481v212h212v-212h-212zM635 1269v212h211v-212h-211z" />
<glyph unicode="&#xe6;" horiz-adv-x="2116" d="M1058 846v212h634v-212h-634zM212 0v212h634v211h-634v212h634v211h212v-211h635v211h212v-423h-847v-211h847v-212h-1693zM212 846v212h634v-212h-634zM0 212v211h212v-211h-212z" />
<glyph unicode="&#xe7;" d="M0 212v634h212v-634h-212zM212 0v212h634v-212h-211v-212h-212v212h-211zM212 -212h211v-211h-211v211zM212 846v212h634v-212h-634zM846 212v211h212v-211h-212zM846 635v211h212v-211h-212z" />
<glyph unicode="&#xe8;" d="M0 212v634h212v-211h634v211h212v-423h-846v-211h-212zM212 0v212h846v-212h-846zM212 846v212h634v-212h-634zM212 1481v212h211v-212h-211zM423 1269v212h212v-212h-212z" />
<glyph unicode="&#xe9;" d="M0 212v634h212v-211h634v211h212v-423h-846v-211h-212zM212 0v212h846v-212h-846zM212 846v212h634v-212h-634zM423 1269v212h212v-212h-212zM635 1481v212h211v-212h-211z" />
<glyph unicode="&#xea;" d="M0 212v634h212v-211h634v211h212v-423h-846v-211h-212zM212 0v212h846v-212h-846zM212 846v212h634v-212h-634zM212 1269v212h211v-212h-211zM423 1481v212h212v-212h-212zM635 1269v212h211v-212h-211z" />
<glyph unicode="&#xeb;" d="M0 212v634h212v-211h634v211h212v-423h-846v-211h-212zM212 0v212h846v-212h-846zM212 846v212h634v-212h-634zM212 1269v212h211v-212h-211zM635 1269v212h211v-212h-211z" />
<glyph unicode="&#xec;" horiz-adv-x="1904" d="M0 212v1057h212v212h211v212h846v-212h212v-212h212v-634h-212v-212h-212v-211h-634v211h-212v635h212v211h423v-211h211v-212h-211v-211h-212v211h212v212h-423v-635h634v212h212v634h-212v212h-846v-212h-211v-1057h211v-212h1058v212h212v-212h-212v-212h-1058v212 h-211v212h-212z" />
<glyph unicode="&#xed;" horiz-adv-x="1058" d="M0 212v211h212v212h423v846h211v-1269h-211v-212h-423v212h-212zM212 212h423v211h-423v-211z" />
<glyph unicode="&#xee;" horiz-adv-x="635" d="M212 1269v212h211v-212h-211zM0 1481v211h212v-211h-212zM0 0v1058h212v-1058h-212zM-212 1269v212h212v-212h-212z" />
<glyph unicode="&#xef;" horiz-adv-x="635" d="M212 1269v212h211v-212h-211zM0 0v1058h212v-1058h-212zM-212 1269v212h212v-212h-212z" />
<glyph unicode="&#xf1;" d="M846 1481v211h212v-211h-212zM212 1481v212h423v-212h211v-212h-423v212h-211zM846 0v846h212v-846h-212zM0 1269v212h212v-212h-212zM0 0v1058h846v-212h-634v-846h-212z" />
<glyph unicode="&#xf2;" d="M0 212v634h212v-634h-212zM212 0v212h634v-212h-634zM212 846v212h634v-212h-634zM212 1481v212h211v-212h-211zM423 1269v212h212v-212h-212zM846 212v634h212v-634h-212z" />
<glyph unicode="&#xf3;" d="M0 212v634h212v-634h-212zM212 0v212h634v-212h-634zM212 846v212h634v-212h-634zM423 1269v212h212v-212h-212zM635 1481v212h211v-212h-211zM846 212v634h212v-634h-212z" />
<glyph unicode="&#xf4;" d="M0 212v634h212v-634h-212zM212 0v212h634v-212h-634zM212 846v212h634v-212h-634zM212 1269v212h211v-212h-211zM423 1481v212h212v-212h-212zM635 1269v212h211v-212h-211zM846 212v634h212v-634h-212z" />
<glyph unicode="&#xf5;" horiz-adv-x="1692" d="M0 423v423h212v212h211v211h212v212h211v-212h212v-211h211v-212h212v-423h-423v-211h211v-212h-1057v212h211v211h-423z" />
<glyph unicode="&#xf6;" d="M0 212v634h212v-634h-212zM212 0v212h634v-212h-634zM212 846v212h634v-212h-634zM212 1269v212h211v-212h-211zM635 1269v212h211v-212h-211zM846 212v634h212v-634h-212z" />
<glyph unicode="&#xf7;" horiz-adv-x="1904" d="M0 846v635h212v212h1057v-212h424v-212h-424v212h-1057v-635h423v212h211v-212h-211v-634h211v423h212v211h211v212h424v-212h-424v-211h-211v-635h-423v212h-212v423h-211v211h-212z" />
<glyph unicode="&#xf8;" horiz-adv-x="1692" d="M1269 1058v211h212v-211h-212zM423 846v212h846v-846h-211v423h-212v211h-423zM212 0v846h211v-423h212v-211h423v-212h-846zM635 423v212h211v-212h-211zM0 -212v212h212v-212h-212z" />
<glyph unicode="&#xf9;" d="M846 212v846h212v-846h-212zM423 1269v212h212v-212h-212zM212 0v212h634v-212h-634zM0 212v846h212v-846h-212zM212 1481v211h211v-211h-211z" />
<glyph unicode="&#xfa;" d="M846 212v846h212v-846h-212zM635 1481v211h211v-211h-211zM423 1269v212h212v-212h-212zM212 0v212h634v-212h-634zM0 212v846h212v-846h-212z" />
<glyph unicode="&#xfb;" d="M0 212v846h212v-846h-212zM212 0v212h634v-212h-634zM212 1269v212h211v-212h-211zM423 1481v212h212v-212h-212zM635 1269v212h211v-212h-211zM846 212v846h212v-846h-212z" />
<glyph unicode="&#xfc;" d="M846 212v846h212v-846h-212zM635 1269v212h211v-212h-211zM212 0v212h634v-212h-634zM0 212v846h212v-846h-212zM212 1269v212h211v-212h-211z" />
<glyph unicode="&#xfd;" d="M635 1383v211h211v-211h-211zM423 1171v212h212v-212h-212zM212 0v212h634v846h212v-1270h-212v212h-634zM212 -423v211h634v-211h-634zM0 212v846h212v-846h-212z" />
<glyph unicode="&#xff;" d="M635 1269v212h211v-212h-211zM212 0v212h634v846h212v-1270h-212v212h-634zM212 -423v211h634v-211h-634zM0 212v846h212v-846h-212zM212 1269v212h211v-212h-211z" />
<glyph unicode="&#x152;" horiz-adv-x="1904" d="M212 0v212h634v1057h-634v212h1481v-212h-635v-423h635v-211h-635v-423h635v-212h-1481zM0 212v1058h212v-1058h-212z" />
<glyph unicode="&#x153;" horiz-adv-x="2116" d="M212 0v212h634v634h-634v212h1481v-212h-635v-211h635v211h212v-423h-847v-211h847v-212h-1693zM0 212v635h212v-635h-212z" />
<glyph unicode="&#x178;" d="M0 846v423h212v-423h-212zM212 635v211h211v-211h-211zM212 1481v212h211v-212h-211zM423 0v635h212v-635h-212zM635 635v211h211v-211h-211zM635 1481v212h211v-212h-211zM846 846v423h212v-423h-212z" />
<glyph unicode="&#x2c6;" horiz-adv-x="846" d="M423 1269v212h212v-212h-212zM212 1481v211h211v-211h-211zM0 1269v212h212v-212h-212z" />
<glyph unicode="&#x2dc;" horiz-adv-x="1058" d="M317 324v212h212v-212h-212zM-317 324v212h423v-212h211v-211h-423v211h-211zM-529 113v211h212v-211h-212z" />
<glyph unicode="&#x2013;" d="M0 423v212h1058v-212h-1058z" />
<glyph unicode="&#x2014;" horiz-adv-x="2116" d="M0 0v212h212v211h423v1058h634v212h636v-1481h-212v-212h-424v212h-211v211h211v212h424v423h-424v-212h-423v-846h-211v-212h-423v212h-212zM846 1058h423v211h-423v-211zM1269 1269h424v212h-424v-212z" />
<glyph unicode="&#x2018;" horiz-adv-x="1481" d="M0 0v846h212v423h211v212h423v-212h212v-423h211v-846h-1269zM423 846h423v423h-423v-423z" />
<glyph unicode="&#x2019;" horiz-adv-x="635" d="M0 1058v423h423v-635h-211v212h-212zM0 635v211h212v-211h-212z" />
<glyph unicode="&#x201a;" horiz-adv-x="635" d="M0 0v423h423v-635h-211v212h-212zM0 -423v211h212v-211h-212z" />
<glyph unicode="&#x201c;" d="M635 1058v423h212v-212h211v-211h-423zM0 1058v423h212v-212h211v-211h-423z" />
<glyph unicode="&#x201d;" d="M635 1269v212h423v-423h-211v211h-212zM0 1269v212h423v-423h-211v211h-212z" />
<glyph unicode="&#x201e;" d="M635 0v423h423v-635h-211v212h-212zM635 -423v211h211v-211h-211zM0 -423v211h212v-211h-212zM0 0v423h423v-635h-211v212h-212z" />
<glyph unicode="&#x2022;" horiz-adv-x="1904" d="M0 212v634h212v212h211v423h212v212h423v-635h211v-212h424v-211h-424v211h-211v212h-212v423h-211v-635h211v-211h-211v211h-423v-634h1057v211h424v-211h-424v-212h-1057v212h-212z" />
<glyph unicode="&#x2026;" horiz-adv-x="2327" d="M1693 0v423h424v-423h-424zM0 0v423h423v-423h-423zM846 0v423h423v-423h-423z" />
<glyph unicode="&#x2039;" horiz-adv-x="846" d="M423 1058v211h212v-211h-212zM423 212v211h212v-211h-212zM212 846v212h211v-212h-211zM212 423v212h211v-212h-211zM0 635v211h212v-211h-212z" />
<glyph unicode="&#x203a;" horiz-adv-x="846" d="M423 635v211h212v-211h-212zM0 212v211h212v-211h-212zM212 423v212h211v-212h-211zM212 846v212h211v-212h-211zM0 1058v211h212v-211h-212z" />
<glyph unicode="&#x2122;" horiz-adv-x="1692" d="M846 1058v635h212v-212h211v212h212v-635h-212v211h-211v-211h-212zM0 1481v212h635v-212h-212v-423h-211v423h-212z" />
<glyph unicode="&#xe000;" horiz-adv-x="1060" d="M0 1060h1060v-1060h-1060v1060z" />
<glyph unicode="&#xfb01;" horiz-adv-x="1481" d="M1058 1269v212h212v-212h-212zM1058 0v1058h212v-1058h-212zM423 1269v212h423v-212h-423zM0 846v212h212v211h211v-211h212v-212h-212v-846h-211v846h-212z" />
<glyph unicode="&#xfb02;" horiz-adv-x="1481" d="M1058 0v1481h212v-1481h-212zM423 1269v212h423v-212h-423zM0 846v212h212v211h211v-211h212v-212h-212v-846h-211v846h-212z" />
<glyph unicode="&#xfb03;" horiz-adv-x="2539" d="M2117 1269v212h212v-212h-212zM2117 0v1058h212v-1058h-212zM1481 1269v212h423v-212h-423zM1058 846v212h212v211h211v-211h212v-212h-212v-846h-211v846h-212zM423 1269v212h423v-212h-423zM0 846v212h212v211h211v-211h212v-212h-212v-846h-211v846h-212z" />
<glyph unicode="&#xfb04;" horiz-adv-x="2539" d="M2117 0v1481h212v-1481h-212zM1481 1269v212h423v-212h-423zM1058 846v212h212v211h211v-211h212v-212h-212v-846h-211v846h-212zM423 1269v212h423v-212h-423zM0 846v212h212v211h211v-211h212v-212h-212v-846h-211v846h-212z" />
<glyph horiz-adv-x="0" d="M0 423v1058h212v-1058h-212z" />
<glyph horiz-adv-x="0" d="M0 0v212h212v-212h-212z" />
<glyph horiz-adv-x="0" d="M0 1058v423h212v-423h-212z" />
<glyph horiz-adv-x="0" d="M0 0v212h423v423h-211v211h211v423h-211v212h211v212h212v-212h211v212h212v-212h423v-212h-423v-423h211v-211h-211v-423h211v-212h-211v-212h-212v212h-211v-212h-212v212h-423zM635 212h211v423h-211v-423zM635 846h211v423h-211v-423z" />
<glyph horiz-adv-x="0" d="M212 0v212h423v-212h-423z" />
<glyph horiz-adv-x="0" d="M0 423v1058h212v-1058h-212z" />
<glyph horiz-adv-x="0" d="M212 1058v211h211v424h212v-424h211v-211h-211v-423h-212v423h-211z" />
<glyph horiz-adv-x="0" d="M0 0v423h423v-635h-211v212h-212z" />
<glyph horiz-adv-x="0" d="M0 0v211h212v-211h-212z" />
<glyph horiz-adv-x="0" d="M635 846v212h211v211h212v-1057h-212v634h-211z" />
<glyph horiz-adv-x="0" d="M0 423v212h634v-212h-634z" />
<glyph horiz-adv-x="0" d="M0 212v1057h212v-634h211v-212h-211v-211h-212z" />
<glyph horiz-adv-x="0" d="M0 0v635h212v-423h846v-212h-1058z" />
<glyph horiz-adv-x="0" d="M0 421v211h634v-211h-634z" />
<glyph horiz-adv-x="0" d="M0 0v212h211v-212h-211z" />
<glyph horiz-adv-x="0" d="M0 423v212h635v423h-212v211h212v212h211v-846h212v-212h-212v-423h-211v423h-635zM0 635h212v211h-212v-211z" />
<glyph horiz-adv-x="0" d="M0 212v1057h212v-423h634v-211h-634v-423h-212z" />
<glyph horiz-adv-x="0" d="M0 1058v423h211v-423h-211z" />
<glyph horiz-adv-x="0" d="M0 1269v212h1058v-423h-212v211h-846z" />
<glyph horiz-adv-x="0" d="M212 635v211h634v423h212v-1057h-212v423h-634z" />
<glyph horiz-adv-x="0" d="M0 212v211h1058v-211h-1058z" />
<glyph horiz-adv-x="0" d="M423 423v635h635v-423h211v634h212v-846h-1058zM635 635h211v211h-211v-211z" />
<glyph horiz-adv-x="0" d="M212 0v212h1057v-212h-1057z" />
<glyph horiz-adv-x="0" d="M0 0v1269h212v-423h634v423h212v-1269h-212v635h-634v-635h-212z" />
<glyph horiz-adv-x="0" d="M0 0v1481h846v-212h-634v-423h634v-211h-634v-423h634v-212h-846z" />
<glyph horiz-adv-x="0" d="M0 0v1481h846v-212h-634v-1057h634v-212h-846z" />
<glyph horiz-adv-x="0" d="M423 635v211h635v-634h-212v423h-423z" />
<glyph horiz-adv-x="0" d="M846 212v1269h212v-1269h-212z" />
<glyph horiz-adv-x="0" d="M846 1058v211h212v212h211v-1481h-211v1058h-212z" />
<glyph horiz-adv-x="0" d="M0 0v1481h212v-212h211v-211h-211v-1058h-212z" />
<glyph horiz-adv-x="0" d="M635 423v212h211v846h212v-1481h-212v423h-211z" />
<glyph horiz-adv-x="0" d="M0 0v1481h212v-423h211v-212h-211v-846h-212z" />
<glyph horiz-adv-x="0" d="M0 845v635h212v-635h-212z" />
<glyph horiz-adv-x="0" d="M0 0v1481h846v-212h-634v-634h634v-212h-634v-423h-212z" />
<glyph horiz-adv-x="0" d="M212 0v212h423v211h211v846h212v-1269h-846z" />
<glyph horiz-adv-x="0" d="M0 0v1481h846v-212h-634v-634h634v-423h-211v211h-423v-423h-212z" />
<glyph horiz-adv-x="0" d="M0 635v846h212v-846h-212z" />
<glyph horiz-adv-x="0" d="M0 0v211h211v-211h-211z" />
<glyph horiz-adv-x="0" d="M0 0v423h212v-211h846v-212h-1058z" />
<glyph horiz-adv-x="0" d="M212 0v212h634v211h-634v212h634v211h212v-846h-846z" />
<glyph horiz-adv-x="0" d="M0 0v1481h212v-423h634v-212h-634v-634h634v-212h-846z" />
<glyph horiz-adv-x="0" d="M212 0v212h634v634h-634v212h634v423h212v-1481h-846z" />
<glyph horiz-adv-x="0" d="M0 846v212h212v211h211v-211h212v-212h-212v-846h-211v846h-212z" />
<glyph horiz-adv-x="0" d="M212 0v212h634v634h-634v212h846v-1270h-212v212h-634z" />
<glyph horiz-adv-x="0" d="M0 0v1481h212v-423h634v-212h-634v-846h-212z" />
<glyph horiz-adv-x="0" d="M0 0v1058h212v-1058h-212z" />
<glyph horiz-adv-x="0" d="M212 -212v1270h211v-1270h-211z" />
<glyph horiz-adv-x="0" d="M0 0v1481h212v-846h211v-212h-211v-423h-212z" />
<glyph horiz-adv-x="0" d="M0 0v1058h1269v-212h-423v-846h-211v846h-423v-846h-212z" />
<glyph horiz-adv-x="0" d="M0 0v1058h846v-212h-634v-846h-212z" />
<glyph horiz-adv-x="0" d="M212 0v212h634v634h-634v212h846v-1481h-212v423h-634z" />
<glyph horiz-adv-x="0" d="M0 0v1058h212v-212h211v-211h-211v-635h-212z" />
<glyph horiz-adv-x="0" d="M0 846v212h212v423h211v-423h423v-212h-423v-634h-211v634h-212z" />
<glyph horiz-adv-x="0" d="M0 339v846h211v-846h-211z" />
<glyph horiz-adv-x="0" d="M212 0v212h634v846h212v-1270h-212v212h-634z" />
<glyph horiz-adv-x="0" d="M0 846v212h1058v-212h-212v-211h-211v211h-635z" />
<glyph horiz-adv-x="0" d="M0 0v212h212v211h211v-211h635v-212h-1058z" />
<glyph horiz-adv-x="0" d="M212 1269v212h423v-212h211v-211h-423v211h-211z" />
<glyph horiz-adv-x="0" d="M212 0v212h211v634h-211v212h211v211h212v-211h211v-212h-211v-634h211v-212h-211v-212h-212v212h-211z" />
<glyph horiz-adv-x="0" d="M0 423v212h635v-212h-635z" />
<glyph horiz-adv-x="0" d="M212 635v634h211v-423h423v-211h-634z" />
<glyph horiz-adv-x="0" d="M0 423v846h212v212h211v212h1058v-212h212v-212h212v-846h-212v-423h-212v-212h-1058v212h-211v423h-212zM212 423h211v-423h212v423h211v-423h212v423h211v-423h212v423h212v846h-212v212h-1058v-212h-211v-846z" />
<glyph horiz-adv-x="0" d="M0 421v211h635v-211h-635z" />
<glyph horiz-adv-x="0" d="M212 0v211h423v-211h-423z" />
<glyph horiz-adv-x="0" d="M212 1058v211h211v212h212v-212h211v-211h-634z" />
<glyph horiz-adv-x="0" d="M0 0v1058h212v-423h634v423h212v-1058h-212v423h-634v-423h-212z" />
<glyph horiz-adv-x="0" d="M212 1058v423h211v-212h212v212h211v-423h-634z" />
<glyph horiz-adv-x="0" d="M212 1058v211h211v212h-211v212h423v-212h211v-423h-634z" />
<glyph horiz-adv-x="0" d="M0 0v1058h212v-212h634v212h212v-1058h-212v635h-634v-635h-212z" />
<glyph horiz-adv-x="0" d="M0 0v1269h423v212h212v-212h423v-211h-846v-212h634v-211h-634v-423h846v-212h-1058z" />
<glyph horiz-adv-x="0" d="M0 0v1058h1058v-212h-846v-211h634v-212h-634v-211h846v-212h-1058z" />
<glyph horiz-adv-x="0" d="M0 0v1269h212v212h211v-212h212v212h211v-212h212v-211h-846v-212h634v-211h-634v-423h846v-212h-1058z" />
<glyph horiz-adv-x="0" d="M0 0v1269h1058v-211h-846v-212h634v-211h-634v-423h846v-212h-1058z" />
<glyph horiz-adv-x="0" d="M0 0v212h212v846h-212v423h212v-212h211v212h212v-423h-212v-846h212v-212h-635z" />
<glyph horiz-adv-x="0" d="M0 0v212h212v846h-212v211h635v-211h-212v-846h212v-212h-635z" />
<glyph horiz-adv-x="0" d="M212 1269v212h846v-1269h-212v634h-211v423h-423z" />
<glyph horiz-adv-x="0" d="M0 0v1269h212v-634h211v-423h423v-212h-846z" />
<glyph horiz-adv-x="0" d="M0 -423v1692h212v-423h634v-211h-634v-1058h-212z" />
<glyph horiz-adv-x="0" d="M212 0v212h634v211h-634v212h634v211h212v-211h635v211h212v-423h-847v-211h847v-212h-1693z" />
<glyph horiz-adv-x="0" d="M212 1481v212h423v-212h211v-212h-423v212h-211z" />
<glyph horiz-adv-x="0" d="M423 846v212h846v-846h-211v423h-212v211h-423z" />
<glyph horiz-adv-x="0" d="M212 0v846h211v-423h212v-211h423v-212h-846z" />
<glyph horiz-adv-x="0" d="M212 0v212h634v1057h-634v212h1481v-212h-635v-423h635v-211h-635v-423h635v-212h-1481z" />
<glyph horiz-adv-x="0" d="M212 0v212h634v634h-634v212h1481v-212h-635v-211h635v211h212v-423h-847v-211h847v-212h-1693z" />
<glyph horiz-adv-x="0" d="M0 0v212h1058v-212h-1058z" />
<glyph horiz-adv-x="0" d="M0 1058v423h423v-635h-211v212h-212z" />
<glyph horiz-adv-x="0" d="M0 1058v423h212v-212h211v-211h-423z" />
<glyph horiz-adv-x="0" d="M0 1269v212h423v-423h-211v211h-212z" />
<glyph horiz-adv-x="0" d="M1693 0v423h424v-423h-424z" />
<glyph horiz-adv-x="0" d="M846 1058v635h212v-212h211v212h212v-635h-212v211h-211v-211h-212z" />
<glyph horiz-adv-x="0" d="M0 1481v212h635v-212h-212v-423h-211v423h-212z" />
</font>
</defs>
</svg>
